<mxfile host="Electron" modified="2025-03-13T01:21:37.491Z" agent="Mozilla/5.0 (Windows NT 10.0; Win64; x64) AppleWebKit/537.36 (KHTML, like Gecko) draw.io/21.6.5 Chrome/114.0.5735.243 Electron/25.3.1 Safari/537.36" etag="dxGWW3Ep5OfycQSj-8Lg" version="21.6.5" type="device">
  <diagram name="Página-1" id="Y6r2mVM5Y0TbrJUh2oBv">
    <mxGraphModel dx="2867" dy="1380" grid="1" gridSize="10" guides="1" tooltips="1" connect="1" arrows="1" fold="1" page="1" pageScale="1" pageWidth="827" pageHeight="1169" math="0" shadow="0">
      <root>
        <mxCell id="0" />
        <mxCell id="1" parent="0" />
        <mxCell id="7Cn_Ufhg1g9D0EUWHmBx-1" value="Usuario" style="shape=umlActor;verticalLabelPosition=bottom;verticalAlign=top;html=1;outlineConnect=0;" vertex="1" parent="1">
          <mxGeometry x="90" y="250" width="30" height="60" as="geometry" />
        </mxCell>
        <mxCell id="7Cn_Ufhg1g9D0EUWHmBx-2" value="Administrador&lt;br&gt;" style="shape=umlActor;verticalLabelPosition=bottom;verticalAlign=top;html=1;outlineConnect=0;" vertex="1" parent="1">
          <mxGeometry x="440" y="250" width="30" height="60" as="geometry" />
        </mxCell>
        <mxCell id="7Cn_Ufhg1g9D0EUWHmBx-3" value="Gestionar roles y permisos" style="ellipse;whiteSpace=wrap;html=1;" vertex="1" parent="1">
          <mxGeometry x="190" y="120" width="160" height="80" as="geometry" />
        </mxCell>
        <mxCell id="7Cn_Ufhg1g9D0EUWHmBx-4" value="Tecnico" style="shape=umlActor;verticalLabelPosition=bottom;verticalAlign=top;html=1;outlineConnect=0;" vertex="1" parent="1">
          <mxGeometry x="500" y="480" width="30" height="60" as="geometry" />
        </mxCell>
        <mxCell id="7Cn_Ufhg1g9D0EUWHmBx-5" value="Registrar departamentos o areas" style="ellipse;whiteSpace=wrap;html=1;" vertex="1" parent="1">
          <mxGeometry x="190" y="220" width="160" height="80" as="geometry" />
        </mxCell>
        <mxCell id="7Cn_Ufhg1g9D0EUWHmBx-7" value="Registrar usuarios" style="ellipse;whiteSpace=wrap;html=1;" vertex="1" parent="1">
          <mxGeometry x="190" y="310" width="160" height="80" as="geometry" />
        </mxCell>
        <mxCell id="7Cn_Ufhg1g9D0EUWHmBx-8" value="Definir estados de los tickets" style="ellipse;whiteSpace=wrap;html=1;" vertex="1" parent="1">
          <mxGeometry x="190" y="400" width="160" height="80" as="geometry" />
        </mxCell>
        <mxCell id="7Cn_Ufhg1g9D0EUWHmBx-9" value="Configurar parámetros del sistema" style="ellipse;whiteSpace=wrap;html=1;" vertex="1" parent="1">
          <mxGeometry x="190" y="30" width="160" height="80" as="geometry" />
        </mxCell>
        <mxCell id="7Cn_Ufhg1g9D0EUWHmBx-10" value="Configurar flujos de Ttrabajo" style="ellipse;whiteSpace=wrap;html=1;" vertex="1" parent="1">
          <mxGeometry x="190" y="490" width="160" height="80" as="geometry" />
        </mxCell>
        <mxCell id="7Cn_Ufhg1g9D0EUWHmBx-11" value="Gestionar tickets" style="ellipse;whiteSpace=wrap;html=1;" vertex="1" parent="1">
          <mxGeometry x="190" y="584.5" width="160" height="80" as="geometry" />
        </mxCell>
        <mxCell id="7Cn_Ufhg1g9D0EUWHmBx-12" value="Consultar tickets pendientes" style="ellipse;whiteSpace=wrap;html=1;" vertex="1" parent="1">
          <mxGeometry x="190" y="670" width="160" height="80" as="geometry" />
        </mxCell>
        <mxCell id="7Cn_Ufhg1g9D0EUWHmBx-13" value="Cambiar estado de un ticket" style="ellipse;whiteSpace=wrap;html=1;" vertex="1" parent="1">
          <mxGeometry x="190" y="760" width="160" height="80" as="geometry" />
        </mxCell>
        <mxCell id="7Cn_Ufhg1g9D0EUWHmBx-14" value="" style="endArrow=none;html=1;rounded=0;entryX=0.995;entryY=0.572;entryDx=0;entryDy=0;entryPerimeter=0;" edge="1" parent="1" source="7Cn_Ufhg1g9D0EUWHmBx-2" target="7Cn_Ufhg1g9D0EUWHmBx-9">
          <mxGeometry width="50" height="50" relative="1" as="geometry">
            <mxPoint x="160" y="220" as="sourcePoint" />
            <mxPoint x="210" y="170" as="targetPoint" />
          </mxGeometry>
        </mxCell>
        <mxCell id="7Cn_Ufhg1g9D0EUWHmBx-15" value="" style="endArrow=none;html=1;rounded=0;entryX=1;entryY=0.5;entryDx=0;entryDy=0;" edge="1" parent="1" target="7Cn_Ufhg1g9D0EUWHmBx-3">
          <mxGeometry width="50" height="50" relative="1" as="geometry">
            <mxPoint x="450" y="261" as="sourcePoint" />
            <mxPoint x="359" y="86" as="targetPoint" />
          </mxGeometry>
        </mxCell>
        <mxCell id="7Cn_Ufhg1g9D0EUWHmBx-16" value="" style="endArrow=none;html=1;rounded=0;entryX=1;entryY=0.5;entryDx=0;entryDy=0;" edge="1" parent="1" target="7Cn_Ufhg1g9D0EUWHmBx-5">
          <mxGeometry width="50" height="50" relative="1" as="geometry">
            <mxPoint x="460" y="271" as="sourcePoint" />
            <mxPoint x="369" y="96" as="targetPoint" />
          </mxGeometry>
        </mxCell>
        <mxCell id="7Cn_Ufhg1g9D0EUWHmBx-17" value="" style="endArrow=none;html=1;rounded=0;entryX=0.918;entryY=0.215;entryDx=0;entryDy=0;entryPerimeter=0;" edge="1" parent="1" source="7Cn_Ufhg1g9D0EUWHmBx-2" target="7Cn_Ufhg1g9D0EUWHmBx-7">
          <mxGeometry width="50" height="50" relative="1" as="geometry">
            <mxPoint x="470" y="281" as="sourcePoint" />
            <mxPoint x="360" y="270" as="targetPoint" />
          </mxGeometry>
        </mxCell>
        <mxCell id="7Cn_Ufhg1g9D0EUWHmBx-18" value="" style="endArrow=none;html=1;rounded=0;entryX=1;entryY=0.5;entryDx=0;entryDy=0;" edge="1" parent="1" target="7Cn_Ufhg1g9D0EUWHmBx-8">
          <mxGeometry width="50" height="50" relative="1" as="geometry">
            <mxPoint x="450" y="296" as="sourcePoint" />
            <mxPoint x="347" y="337" as="targetPoint" />
          </mxGeometry>
        </mxCell>
        <mxCell id="7Cn_Ufhg1g9D0EUWHmBx-19" value="" style="endArrow=none;html=1;rounded=0;entryX=1.001;entryY=0.342;entryDx=0;entryDy=0;entryPerimeter=0;" edge="1" parent="1" target="7Cn_Ufhg1g9D0EUWHmBx-10">
          <mxGeometry width="50" height="50" relative="1" as="geometry">
            <mxPoint x="460" y="306" as="sourcePoint" />
            <mxPoint x="357" y="347" as="targetPoint" />
          </mxGeometry>
        </mxCell>
        <mxCell id="7Cn_Ufhg1g9D0EUWHmBx-20" value="" style="endArrow=none;html=1;rounded=0;exitX=0.012;exitY=0.327;exitDx=0;exitDy=0;exitPerimeter=0;" edge="1" parent="1" source="7Cn_Ufhg1g9D0EUWHmBx-11" target="7Cn_Ufhg1g9D0EUWHmBx-1">
          <mxGeometry width="50" height="50" relative="1" as="geometry">
            <mxPoint x="320" y="460" as="sourcePoint" />
            <mxPoint x="370" y="410" as="targetPoint" />
          </mxGeometry>
        </mxCell>
        <mxCell id="7Cn_Ufhg1g9D0EUWHmBx-21" value="" style="endArrow=none;html=1;rounded=0;entryX=0;entryY=0.5;entryDx=0;entryDy=0;" edge="1" parent="1" source="7Cn_Ufhg1g9D0EUWHmBx-1" target="7Cn_Ufhg1g9D0EUWHmBx-12">
          <mxGeometry width="50" height="50" relative="1" as="geometry">
            <mxPoint x="470" y="316" as="sourcePoint" />
            <mxPoint x="367" y="357" as="targetPoint" />
          </mxGeometry>
        </mxCell>
        <mxCell id="7Cn_Ufhg1g9D0EUWHmBx-22" value="" style="endArrow=none;html=1;rounded=0;exitX=1;exitY=0;exitDx=0;exitDy=0;" edge="1" parent="1" source="7Cn_Ufhg1g9D0EUWHmBx-12" target="7Cn_Ufhg1g9D0EUWHmBx-4">
          <mxGeometry width="50" height="50" relative="1" as="geometry">
            <mxPoint x="320" y="650" as="sourcePoint" />
            <mxPoint x="370" y="600" as="targetPoint" />
          </mxGeometry>
        </mxCell>
        <mxCell id="7Cn_Ufhg1g9D0EUWHmBx-23" value="" style="endArrow=none;html=1;rounded=0;exitX=1;exitY=0.5;exitDx=0;exitDy=0;" edge="1" parent="1" source="7Cn_Ufhg1g9D0EUWHmBx-13">
          <mxGeometry width="50" height="50" relative="1" as="geometry">
            <mxPoint x="337" y="692" as="sourcePoint" />
            <mxPoint x="510" y="534" as="targetPoint" />
          </mxGeometry>
        </mxCell>
      </root>
    </mxGraphModel>
  </diagram>
</mxfile>
